<svg width="720" height="540" viewBox="0 0 720 540" fill="none" xmlns="http://www.w3.org/2000/svg">
  <rect x="32" y="56" width="656" height="428" rx="40" fill="#ffffff" stroke="#e2e8f0" stroke-width="8" />
  <path d="M152 348C152 300.583 190.583 262 238 262H482C529.417 262 568 300.583 568 348V364C568 411.417 529.417 450 482 450H238C190.583 450 152 411.417 152 364V348Z" fill="#eff6ff" />
  <path d="M238 262C196 262 160 226 160 184C160 142 196 106 238 106C280 106 316 142 316 184C316 226 280 262 238 262Z" fill="#2563eb" />
  <path d="M482 262C440 262 404 226 404 184C404 142 440 106 482 106C524 106 560 142 560 184C560 226 524 262 482 262Z" fill="#93c5fd" />
  <path d="M275 316C282.732 316 289 309.732 289 302C289 294.268 282.732 288 275 288C267.268 288 261 294.268 261 302C261 309.732 267.268 316 275 316Z" fill="#2563eb" />
  <path d="M445 316C452.732 316 459 309.732 459 302C459 294.268 452.732 288 445 288C437.268 288 431 294.268 431 302C431 309.732 437.268 316 445 316Z" fill="#1e3a8a" />
  <rect x="302" y="382" width="116" height="38" rx="19" fill="#2563eb" />
  <path d="M292 206L294 214L302 216L294 218L292 226L290 218L282 216L290 214L292 206Z" fill="#ffffff" />
  <path d="M498 206L500 214L508 216L500 218L498 226L496 218L488 216L496 214L498 206Z" fill="#ffffff" />
</svg>
